HIERARCHY
ROOT Hips
{
    OFFSET 0.000000 0.000000 0.000000
    CHANNELS 6 Xposition Yposition Zposition Zrotation Xrotation Yrotation
    JOINT Spine
    {
        OFFSET -0.000000 8.104110 0.000000
        CHANNELS 3 Zrotation Xrotation Yrotation
        JOINT Spine1
        {
            OFFSET -0.000000 22.417536 0.000000
            CHANNELS 3 Zrotation Xrotation Yrotation
            JOINT Neck
            {
                OFFSET -0.000000 22.325472 2.029588
                CHANNELS 3 Zrotation Xrotation Yrotation
                JOINT Head
                {
                    OFFSET -0.000000 13.836284 -1.976612
                    CHANNELS 3 Zrotation Xrotation Yrotation
                    End Site
                    {
                        OFFSET -0.000000 24.707651 0.000000
                    }
                }
            }
            JOINT LeftShoulder
            {
                OFFSET 3.973640 20.379602 -0.279950
                CHANNELS 3 Zrotation Xrotation Yrotation
                JOINT LeftArm
                {
                    OFFSET 11.493720 0.000000 0.000000
                    CHANNELS 3 Zrotation Xrotation Yrotation
                    JOINT LeftForeArm
                    {
                        OFFSET 31.336695 0.000000 0.000000
                        CHANNELS 3 Zrotation Xrotation Yrotation
                        JOINT LeftHand
                        {
                            OFFSET 29.043781 0.000000 0.000000
                            CHANNELS 3 Zrotation Xrotation Yrotation
                            End Site
                            {
                                OFFSET 14.824592 0.000000 0.000000
                            }
                        }
                    }
                }
            }
            JOINT RightShoulder
            {
                OFFSET -3.921018 20.379602 -0.279950
                CHANNELS 3 Zrotation Xrotation Yrotation
                JOINT RightArm
                {
                    OFFSET -11.493720 0.000000 0.000000
                    CHANNELS 3 Zrotation Xrotation Yrotation
                    JOINT RightForeArm
                    {
                        OFFSET -31.336695 0.000000 0.000000
                        CHANNELS 3 Zrotation Xrotation Yrotation
                        JOINT RightHand
                        {
                            OFFSET -29.043781 0.000000 0.000000
                            CHANNELS 3 Zrotation Xrotation Yrotation
                            End Site
                            {
                                OFFSET -14.824592 0.000000 0.000000
                            }
                        }
                    }
                }
            }
        }
    }
    JOINT LeftUpLeg
    {
        OFFSET 9.883060 0.000000 0.000000
        CHANNELS 3 Zrotation Xrotation Yrotation
        JOINT LeftLeg
        {
            OFFSET -0.000000 -43.587502 0.000000
            CHANNELS 3 Zrotation Xrotation Yrotation
            JOINT LeftFoot
            {
                OFFSET -0.000000 -41.501083 0.000000
                CHANNELS 3 Zrotation Xrotation Yrotation
                JOINT LeftToeBase
                {
                    OFFSET -0.000000 -6.423989 14.824592
                    CHANNELS 3 Zrotation Xrotation Yrotation
                    End Site
                    {
                        OFFSET -0.000000 0.000000 3.953224
                    }
                }
            }
        }
    }
    JOINT RightUpLeg
    {
        OFFSET -9.883060 0.000000 0.000000
        CHANNELS 3 Zrotation Xrotation Yrotation
        JOINT RightLeg
        {
            OFFSET -0.000000 -43.587502 0.000000
            CHANNELS 3 Zrotation Xrotation Yrotation
            JOINT RightFoot
            {
                OFFSET -0.000000 -41.501083 0.000000
                CHANNELS 3 Zrotation Xrotation Yrotation
                JOINT RightToeBase
                {
                    OFFSET -0.000000 -6.423989 14.824592
                    CHANNELS 3 Zrotation Xrotation Yrotation
                    End Site
                    {
                        OFFSET -0.000000 0.000000 3.953224
                    }
                }
            }
        }
    }
}
MOTION
Frames:    5
Frame Time:    0.008333
0.153499    100.286781    -48.615711    1.228261    5.536395    -173.908310    1.896387    -4.771233    -0.443282    -4.525996    0.424550    -0.505527    6.690821    18.408382    -0.377721    -3.256676    7.467111    -0.511673    31.516348    -11.389664    -2.650903    7.322603    -11.549361    -9.858126    25.919876    -31.646275    -32.632759    9.127802    -24.968859    -1.738254    -20.431286    -8.658129    -3.807478    -12.748860    -7.997127    13.550177    -33.320568    -33.306889    27.911053    -5.431098    -26.372950    11.252776    15.323392    -1.401108    -13.112410    4.795743    23.017385    -9.325797    -17.170368    27.020262    21.617477    0.000000    0.000000    0.000000    -18.268688    5.975845    11.308250    3.922532    19.351959    7.347580    19.087166    24.168127    -24.903709    0.000000    0.000000    0.000000    
0.015817    98.872833    -48.419720    1.047301    5.734419    -174.009399    1.981483    -4.023341    -0.286632    -4.788328    -0.116112    -0.361042    7.399209    18.767513    -0.626393    -3.772938    7.138517    -0.781557    31.869722    -11.265000    -2.986635    7.616644    -12.322554    -10.010894    28.094986    -32.948841    -35.462177    9.828783    -25.006601    -1.104014    -20.579111    -8.905547    -3.987349    -13.480637    -8.567348    13.898032    -35.415710    -34.489216    30.176737    -6.074022    -26.455336    10.414495    14.914970    -1.781391    -14.017849    5.133600    25.942888    -10.226580    -18.086498    20.666443    22.406103    0.000000    0.000000    0.000000    -18.470284    5.341988    12.098459    4.194355    21.590763    8.064355    20.125948    20.914009    -26.275330    0.000000    0.000000    0.000000    
-0.091846    97.445976    -48.226387    0.931368    5.983571    -174.094208    2.112543    -3.352401    -0.189004    -4.941043    -0.324854    -0.264894    7.867321    19.001675    -0.758227    -4.227841    6.543577    -0.948855    32.211006    -11.459173    -3.057861    7.622599    -12.906242    -10.206919    30.791971    -34.006584    -37.924011    9.814756    -24.624771    -1.085792    -21.132359    -9.373566    -4.082447    -13.834228    -8.967183    14.148248    -37.680817    -35.918224    32.226330    -6.823820    -26.750044    9.675132    14.602398    -2.220041    -14.525676    5.664037    28.812059    -12.518288    -19.734993    15.029677    24.253727    0.000000    0.000000    0.000000    -18.610510    4.811656    12.734266    4.437699    24.021990    9.281488    20.025747    16.615469    -27.211716    0.000000    0.000000    0.000000    
-0.182674    95.964233    -48.038673    0.872274    6.314795    -174.234467    2.358430    -2.610286    -0.060348    -5.199145    -0.538005    -0.138909    8.196527    19.353127    -0.934524    -4.383597    5.768857    -1.139024    32.555286    -11.501606    -3.188591    7.456888    -14.032848    -10.465080    33.814198    -34.703331    -40.325649    9.338338    -23.626982    -1.524706    -21.546303    -9.761765    -4.194150    -13.995368    -9.904913    14.458752    -40.091103    -36.996895    34.563427    -6.821914    -26.362282    8.968064    14.410639    -2.527913    -14.650025    6.065890    31.097599    -12.666571    -19.631996    10.905698    23.471489    0.000000    0.000000    0.000000    -18.731886    4.297335    13.167068    4.802999    27.120846    9.705946    17.780159    11.017940    -26.226530    0.000000    0.000000    0.000000    
-0.275437    94.446815    -47.850639    0.783433    6.693560    -174.351059    2.508513    -1.964751    0.060136    -5.294216    -0.359187    -0.000885    8.296552    19.396906    -1.021129    -4.397593    5.044668    -1.251695    33.010075    -11.933351    -3.089825    6.592311    -14.950223    -10.827589    37.560768    -35.491116    -42.555214    8.365034    -22.322910    -2.273238    -22.332401    -10.324769    -4.442472    -13.765129    -10.427964    14.742057    -43.128819    -38.263737    36.371899    -6.989996    -26.081789    8.512026    14.291473    -2.788713    -14.743486    6.256907    33.175426    -12.512170    -18.555016    7.069105    21.842924    0.000000    0.000000    0.000000    -18.931610    3.827544    12.992700    4.902662    29.916298    10.175379    17.686249    5.856954    -25.514101    0.000000    0.000000    0.000000    
